<?xml version="1.0" encoding="UTF-8" standalone="no"?>
<svg
   xmlns:dc="http://purl.org/dc/elements/1.1/"
   xmlns:cc="http://creativecommons.org/ns#"
   xmlns:rdf="http://www.w3.org/1999/02/22-rdf-syntax-ns#"
   xmlns:svg="http://www.w3.org/2000/svg"
   xmlns="http://www.w3.org/2000/svg"
   xmlns:sodipodi="http://sodipodi.sourceforge.net/DTD/sodipodi-0.dtd"
   xmlns:inkscape="http://www.inkscape.org/namespaces/inkscape"
   viewBox="0 0 1015.4402 274.13973"
   height="274.13974"
   width="1015.4402"
   xml:space="preserve"
   id="svg2"
   version="1.1"
   inkscape:version="0.91 r13725"
   sodipodi:docname="UAV Forge Logo 2015.svg"
   preserveAspectRatio="xMinYMin meet"><sodipodi:namedview
     pagecolor="#ffffff"
     bordercolor="#666666"
     borderopacity="1"
     objecttolerance="10"
     gridtolerance="10"
     guidetolerance="10"
     inkscape:pageopacity="0"
     inkscape:pageshadow="2"
     inkscape:window-width="1526"
     inkscape:window-height="877"
     id="namedview3380"
     showgrid="false"
     fit-margin-top="10"
     fit-margin-left="10"
     fit-margin-right="10"
     fit-margin-bottom="10"
     showborder="false"
     inkscape:zoom="0.66374995"
     inkscape:cx="-216.83256"
     inkscape:cy="50.785812"
     inkscape:window-x="-8"
     inkscape:window-y="-8"
     inkscape:window-maximized="1"
     inkscape:current-layer="svg2" /><metadata
     id="metadata8"><rdf:RDF><cc:Work
         rdf:about=""><dc:format>image/svg+xml</dc:format><dc:type
           rdf:resource="http://purl.org/dc/dcmitype/StillImage" /><dc:title /></cc:Work></rdf:RDF></metadata><defs
     id="defs6"><clipPath
       id="clipPath22"
       clipPathUnits="userSpaceOnUse"><path
         id="path20"
         d="M 0,800 1280,800 1280,0 0,0 Z"
         inkscape:connector-curvature="0" /></clipPath></defs><g
     transform="matrix(1.3333333,0,0,-1.3333333,-346.24874,756.68725)"
     id="g10"><text
       id="text14"
       style="font-style:italic;font-variant:normal;font-weight:normal;font-stretch:normal;font-size:33px;font-family:'Gill Sans MT';-inkscape-font-specification:GillSansMT-Italic;writing-mode:lr-tb;fill:#c6beb5;fill-opacity:1;fill-rule:nonzero;stroke:none"
       transform="matrix(1,0,0,-1,265.8975,377)"><tspan
         id="tspan12"
         y="0"
         x="0 7.8011999 23.1 34.692902 50.526299 56.532299 66.910797 73.052101 88.185898 102.2769 111.4509 119.2389 134.38589 149.556 163.7493 175.56 191.103 200.65649 206.679 221.24519 236.7222 245.89619 254.496 268.92361 279.25259 288.42661 302.5968 316.7406 327.5448 338.9595 353.5224 368.64301 384.05731 390.26129 399.4353 416.51279 431.94031 441.13409 455.70029 470.87039 485.49271 509.4837 524.06641 539.37842 551.06042 560.23438 574.7478 587.20532 598.95001 608.01178 622.4295 646.54919 658.2312 667.40521 682.94818 692.22119 701.3952 722.28748 740.31207">Inspiring Innovation for Personal Autonomous Systems at UCI</tspan></text>
<g
       id="g16"><g
         clip-path="url(#clipPath22)"
         id="g18"><g
           transform="translate(324.6667,468.6667)"
           id="g24"><path
             id="path26"
             style="fill:#ffd200;fill-opacity:1;fill-rule:nonzero;stroke:none"
             d="m 0,0 c 0,0 -0.71,0.093 -2.068,0.396 -1.352,0.322 -3.352,0.862 -5.876,1.869 -2.506,1.028 -5.55,2.556 -8.664,5.136 -1.552,1.289 -3.08,2.894 -4.396,4.867 -1.328,1.961 -2.369,4.339 -2.93,6.975 -0.172,0.654 -0.227,1.334 -0.336,2.017 -0.061,0.342 -0.058,0.689 -0.088,1.037 l -0.034,0.524 -0.016,0.264 -0.008,0.132 c -0.001,0.077 -0.008,0.015 -0.005,0.206 0.012,0.34 0,0.632 0.031,1.018 0.047,0.395 0.078,0.836 0.152,1.2 0.128,0.749 0.309,1.483 0.529,2.205 0.887,2.887 2.359,5.56 4.049,8.188 3.427,5.232 7.954,10.164 13.163,14.958 5.203,4.808 11.232,9.335 17.85,13.662 6.63,4.313 13.9,8.389 21.79,11.998 7.902,3.572 16.386,6.76 25.412,9.23 9.027,2.451 18.581,4.206 28.495,5.009 4.953,0.394 10.008,0.537 15.093,0.416 2.5,-0.023 5.081,-0.166 7.653,-0.273 2.556,-0.17 5.132,-0.304 7.708,-0.534 10.32,-0.82 20.788,-2.129 31.399,-3.617 21.23,-2.935 43.021,-6.719 65.147,-10.563 22.123,-3.864 44.573,-7.881 67.111,-11.252 5.634,-0.839 11.268,-1.677 16.909,-2.418 5.646,-0.774 11.265,-1.423 16.929,-1.949 2.826,-0.279 5.65,-0.558 8.471,-0.837 2.82,-0.288 5.637,-0.558 8.452,-0.769 5.628,-0.458 11.24,-0.915 16.83,-1.37 22.385,-1.637 44.438,-3.035 65.792,-4.152 5.338,-0.285 10.632,-0.568 15.876,-0.848 5.245,-0.253 10.44,-0.505 15.58,-0.753 10.281,-0.47 20.339,-0.93 30.13,-1.378 19.585,-0.856 38.105,-1.581 55.202,-2.213 68.388,-2.568 114.001,-3.714 114.001,-3.714 0,0 -11.404,0.239 -31.361,0.659 -9.977,0.243 -22.093,0.539 -35.991,0.878 -13.897,0.363 -29.576,0.784 -46.678,1.328 -17.102,0.541 -35.627,1.167 -55.219,1.919 -9.796,0.396 -19.858,0.802 -30.143,1.217 -5.142,0.221 -10.34,0.445 -15.588,0.671 -5.247,0.252 -10.543,0.506 -15.885,0.762 -21.367,1.004 -43.435,2.284 -65.851,3.803 -5.604,0.427 -11.23,0.854 -16.872,1.283 -2.825,0.197 -5.644,0.452 -8.465,0.725 -2.822,0.264 -5.647,0.527 -8.475,0.792 -11.336,1.012 -22.689,2.352 -33.996,3.936 -22.615,3.199 -45.116,7.032 -67.264,10.728 -22.143,3.711 -43.932,7.36 -65.094,10.157 -10.584,1.353 -21.012,2.505 -31.225,3.181 -10.22,0.702 -20.194,0.904 -29.804,-0.049 -9.616,-0.94 -18.871,-2.78 -27.605,-5.3 C 51.065,78.893 42.826,75.76 35.161,72.242 19.814,65.225 6.757,56.628 -3.533,47.674 -8.659,43.189 -13.116,38.58 -16.499,33.881 c -1.656,-2.356 -3.075,-4.747 -3.9,-7.113 -0.205,-0.59 -0.373,-1.175 -0.496,-1.749 -0.073,-0.293 -0.086,-0.522 -0.14,-0.785 -0.042,-0.273 -0.053,-0.645 -0.081,-0.96 0.004,-0.278 0.007,-0.555 0.011,-0.831 0.01,-0.298 -0.013,-0.6 0.026,-0.892 0.066,-0.584 0.074,-1.174 0.195,-1.735 0.374,-2.265 1.116,-4.347 2.145,-6.152 1.033,-1.804 2.292,-3.348 3.585,-4.684 2.618,-2.666 5.415,-4.388 7.706,-5.678 2.304,-1.296 4.199,-2.078 5.48,-2.583 C -0.686,0.207 0,0 0,0"
             inkscape:connector-curvature="0" /></g><g
           transform="translate(875.2512,458)"
           id="g28"><path
             id="path30"
             style="fill:#555759;fill-opacity:1;fill-rule:nonzero;stroke:none"
             d="m 0,0 44.67,0 1.835,14 -28.137,0 -13.922,18 48.515,0 1.838,13 -48.539,0 -10.966,-78 56.889,0 1.837,13 -40.368,0 z"
             inkscape:connector-curvature="0" /></g><g
           transform="translate(875.2512,458)"
           id="g32"><path
             id="path34"
             style="fill:none;stroke:#555759;stroke-width:2;stroke-linecap:butt;stroke-linejoin:bevel;stroke-miterlimit:10;stroke-dasharray:none;stroke-opacity:1"
             d="m 0,0 44.67,0 1.835,14 -28.137,0 -13.922,18 48.515,0 1.838,13 -48.539,0 -10.966,-78 56.889,0 1.837,13 -40.368,0 z"
             inkscape:connector-curvature="0" /></g><g
           transform="translate(801.731,493.7251)"
           id="g36"><path
             id="path38"
             style="fill:#555759;fill-opacity:1;fill-rule:nonzero;stroke:none"
             d="m 0,0 c -9.854,-8.758 -14.779,-19.279 -14.779,-31.562 0,-10.316 3.802,-18.74 11.407,-25.271 7.605,-6.532 18.437,-9.797 32.498,-9.797 9.978,0 18.029,-0.744 24.15,0.78 l 5.537,38.125 -30.734,0 -1.667,-12 14.25,0 -1.948,-12.451 c -3.822,-0.965 -7.701,-0.77 -11.634,-0.77 -7.534,0 -13.536,2.221 -18.008,5.989 -4.471,3.765 -6.707,9.158 -6.707,15.839 0,8.757 3.599,15.985 10.799,21.515 7.199,5.529 16.551,8.336 28.055,8.336 6.791,0 13.674,-0.925 20.651,-2.818 l 1.893,14.372 C 57.306,12.18 49.791,13.131 41.219,13.131 23.592,13.131 9.852,8.757 0,0"
             inkscape:connector-curvature="0" /></g><g
           transform="translate(801.731,493.7251)"
           id="g40"><path
             id="path42"
             style="fill:none;stroke:#555759;stroke-width:2;stroke-linecap:butt;stroke-linejoin:bevel;stroke-miterlimit:10;stroke-dasharray:none;stroke-opacity:1"
             d="m 0,0 c -9.854,-8.758 -14.779,-19.279 -14.779,-31.562 0,-10.316 3.802,-18.74 11.407,-25.271 7.605,-6.532 18.437,-9.797 32.498,-9.797 9.978,0 18.029,-0.744 24.15,0.78 l 5.537,38.125 -30.734,0 -1.667,-12 14.25,0 -1.948,-12.451 c -3.822,-0.965 -7.701,-0.77 -11.634,-0.77 -7.534,0 -13.536,2.221 -18.008,5.989 -4.471,3.765 -6.707,9.158 -6.707,15.839 0,8.757 3.599,15.985 10.799,21.515 7.199,5.529 16.551,8.336 28.055,8.336 6.791,0 13.674,-0.925 20.651,-2.818 l 1.893,14.372 C 57.306,12.18 49.791,13.131 41.219,13.131 23.592,13.131 9.852,8.757 0,0 Z"
             inkscape:connector-curvature="0" /></g><g
           transform="translate(757.5308,473.5051)"
           id="g44"><path
             id="path46"
             style="fill:#555759;fill-opacity:1;fill-rule:nonzero;stroke:none"
             d="m 0,0 c -2.788,-2.128 -6.69,-4.505 -11.707,-4.505 l -8.195,0 2.932,21 8.092,0 c 4.093,0 7.292,0.51 9.599,-1.248 C 3.027,13.489 4.182,11.112 4.182,8.04 4.182,4.783 2.787,2.128 0,0 m 1.469,-11.564 0,0.222 c 5,1.076 11.088,3.452 14.075,7.125 2.987,3.674 5.104,8.072 5.104,13.193 0,6.346 -1.981,10.399 -6.563,15.019 -4.584,4.62 -10.72,5.5 -19.032,5.5 l -26.663,0 -10.855,-78 16.524,0 4.362,32 3.501,0 c 4.075,0 7.019,0.401 8.836,-1.345 1.815,-1.745 4.371,-7.02 7.669,-14 l 7.436,-16.655 18.246,0 -13.212,26.263 c -2.338,4.861 -6.428,9.453 -9.428,10.678"
             inkscape:connector-curvature="0" /></g><g
           transform="translate(757.5308,473.5051)"
           id="g48"><path
             id="path50"
             style="fill:none;stroke:#555759;stroke-width:2;stroke-linecap:butt;stroke-linejoin:bevel;stroke-miterlimit:10;stroke-dasharray:none;stroke-opacity:1"
             d="m 0,0 c -2.788,-2.128 -6.69,-4.505 -11.707,-4.505 l -8.195,0 2.932,21 8.092,0 c 4.093,0 7.292,0.51 9.599,-1.248 C 3.027,13.489 4.182,11.112 4.182,8.04 4.182,4.783 2.787,2.128 0,0 Z m 1.469,-11.564 0,0.222 c 5,1.076 11.088,3.452 14.075,7.125 2.987,3.674 5.104,8.072 5.104,13.193 0,6.346 -1.981,10.399 -6.563,15.019 -4.584,4.62 -10.72,5.5 -19.032,5.5 l -26.663,0 -10.855,-78 16.524,0 4.362,32 3.501,0 c 4.075,0 7.019,0.401 8.836,-1.345 1.815,-1.745 4.371,-7.02 7.669,-14 l 7.436,-16.655 18.246,0 -13.212,26.263 c -2.338,4.861 -6.428,9.453 -9.428,10.678 z"
             inkscape:connector-curvature="0" /></g><g
           transform="translate(682.7622,449.8613)"
           id="g52"><path
             id="path54"
             style="fill:#555759;fill-opacity:1;fill-rule:nonzero;stroke:none"
             d="m 0,0 c -5.362,-5.604 -11.884,-8.405 -19.565,-8.405 -6.533,0 -11.867,2.096 -16.003,6.29 -4.139,4.193 -6.207,9.611 -6.207,16.254 0,7.793 2.708,14.491 8.127,20.095 5.418,5.603 11.875,8.405 19.371,8.405 6.457,0 11.791,-2.097 16.004,-6.29 4.21,-4.194 6.317,-9.5 6.317,-15.92 C 8.044,12.414 5.362,5.604 0,0 M 14.445,47.092 C 7.32,53.697 -1.884,57 -13.164,57 c -13.137,0 -24.038,-4.146 -32.703,-12.44 -8.665,-8.294 -12.998,-18.695 -12.998,-31.2 0,-10.503 3.692,-19.149 11.078,-25.94 7.384,-6.791 16.755,-10.187 28.11,-10.187 13.1,0 23.843,4.11 32.23,12.33 8.385,8.219 12.58,18.879 12.58,31.979 0,10.428 -3.563,18.944 -10.688,25.55"
             inkscape:connector-curvature="0" /></g><g
           transform="translate(682.7622,449.8613)"
           id="g56"><path
             id="path58"
             style="fill:none;stroke:#555759;stroke-width:2;stroke-linecap:butt;stroke-linejoin:bevel;stroke-miterlimit:10;stroke-dasharray:none;stroke-opacity:1"
             d="m 0,0 c -5.362,-5.604 -11.884,-8.405 -19.565,-8.405 -6.533,0 -11.867,2.096 -16.003,6.29 -4.139,4.193 -6.207,9.611 -6.207,16.254 0,7.793 2.708,14.491 8.127,20.095 5.418,5.603 11.875,8.405 19.371,8.405 6.457,0 11.791,-2.097 16.004,-6.29 4.21,-4.194 6.317,-9.5 6.317,-15.92 C 8.044,12.414 5.362,5.604 0,0 Z M 14.445,47.092 C 7.32,53.697 -1.884,57 -13.164,57 c -13.137,0 -24.038,-4.146 -32.703,-12.44 -8.665,-8.294 -12.998,-18.695 -12.998,-31.2 0,-10.503 3.692,-19.149 11.078,-25.94 7.384,-6.791 16.755,-10.187 28.11,-10.187 13.1,0 23.843,4.11 32.23,12.33 8.385,8.219 12.58,18.879 12.58,31.979 0,10.428 -3.563,18.944 -10.688,25.55 z"
             inkscape:connector-curvature="0" /></g><g
           transform="translate(568.1167,425)"
           id="g60"><path
             id="path62"
             style="fill:#555759;fill-opacity:1;fill-rule:nonzero;stroke:none"
             d="m 0,0 16.528,0 4.695,33 24.359,0 1.844,13 -24.262,0 2.486,19 28.176,0 1.894,13 -44.754,0 z"
             inkscape:connector-curvature="0" /></g><g
           transform="translate(568.1167,425)"
           id="g64"><path
             id="path66"
             style="fill:none;stroke:#555759;stroke-width:2;stroke-linecap:butt;stroke-linejoin:bevel;stroke-miterlimit:10;stroke-dasharray:none;stroke-opacity:1"
             d="m 0,0 16.528,0 4.695,33 24.359,0 1.844,13 -24.262,0 2.486,19 28.176,0 1.894,13 -44.754,0 z"
             inkscape:connector-curvature="0" /></g><g
           transform="translate(500.3457,457.2441)"
           id="g68"><path
             id="path70"
             style="fill:#555759;fill-opacity:1;fill-rule:nonzero;stroke:none"
             d="m 0,0 -8.666,45.756 -15.743,0 16.279,-79 8.04,0 37.969,79 -16.995,0 z"
             inkscape:connector-curvature="0" /></g><g
           transform="translate(500.3457,457.2441)"
           id="g72"><path
             id="path74"
             style="fill:none;stroke:#555759;stroke-width:2;stroke-linecap:butt;stroke-linejoin:bevel;stroke-miterlimit:10;stroke-dasharray:none;stroke-opacity:1"
             d="m 0,0 -8.666,45.756 -15.743,0 16.279,-79 8.04,0 37.969,79 -16.995,0 z"
             inkscape:connector-curvature="0" /></g><g
           transform="translate(451.0953,452)"
           id="g76"><path
             id="path78"
             style="fill:#555759;fill-opacity:1;fill-rule:nonzero;stroke:none"
             d="M 0,0 10.621,28.315 6.178,48.804 -30.523,-28 l 18.18,0 7.564,17 23.112,0 -2.289,11 z"
             inkscape:connector-curvature="0" /></g><g
           transform="translate(451.0953,452)"
           id="g80"><path
             id="path82"
             style="fill:none;stroke:#555759;stroke-width:2;stroke-linecap:butt;stroke-linejoin:bevel;stroke-miterlimit:10;stroke-dasharray:none;stroke-opacity:1"
             d="M 0,0 10.621,28.315 6.178,48.804 -30.523,-28 l 18.18,0 7.564,17 23.112,0 -2.289,11 z"
             inkscape:connector-curvature="0" /></g><g
           transform="translate(409.5122,503)"
           id="g84"><path
             id="path86"
             style="fill:#555759;fill-opacity:1;fill-rule:nonzero;stroke:none"
             d="m 0,0 -6.624,-45.662 c -0.779,-5.641 -2.895,-9.221 -6.346,-12.171 -3.451,-2.95 -7.83,-4.068 -13.137,-4.068 -5.233,0 -9.482,1.543 -12.747,4.27 -3.266,2.728 -4.899,6.852 -4.899,12.196 0,1.299 0.092,1.305 0.278,2.79 L -37.183,0 -53.716,0 -60.117,-42.823 c -0.298,-2.153 -0.446,-3.497 -0.446,-5.464 0,-8.906 2.967,-15.498 8.902,-20.488 5.935,-4.993 14.447,-7.309 25.537,-7.309 21.031,0 32.955,8.755 35.775,28.947 L 16.525,0 Z"
             inkscape:connector-curvature="0" /></g><g
           transform="translate(409.5122,503)"
           id="g88"><path
             id="path90"
             style="fill:none;stroke:#555759;stroke-width:2;stroke-linecap:butt;stroke-linejoin:bevel;stroke-miterlimit:10;stroke-dasharray:none;stroke-opacity:1"
             d="m 0,0 -6.624,-45.662 c -0.779,-5.641 -2.895,-9.221 -6.346,-12.171 -3.451,-2.95 -7.83,-4.068 -13.137,-4.068 -5.233,0 -9.482,1.543 -12.747,4.27 -3.266,2.728 -4.899,6.852 -4.899,12.196 0,1.299 0.092,1.305 0.278,2.79 L -37.183,0 -53.716,0 -60.117,-42.823 c -0.298,-2.153 -0.446,-3.497 -0.446,-5.464 0,-8.906 2.967,-15.498 8.902,-20.488 5.935,-4.993 14.447,-7.309 25.537,-7.309 21.031,0 32.955,8.755 35.775,28.947 L 16.525,0 Z"
             inkscape:connector-curvature="0" /></g></g></g></g></svg>